<svg width="37" height="40" viewBox="0 0 37 40" fill="none" xmlns="http://www.w3.org/2000/svg">
<g filter="url(#filter0_d_13666_28402)">
<path d="M18.5344 2C19.4679 2.00001 20.3822 2.07845 21.2707 2.22852C21.8629 2.32644 22.3138 2.79598 22.4426 3.38965L22.9015 5.5166C23.1179 6.51817 23.8286 7.32839 24.7131 7.8457C25.6073 8.36866 26.6703 8.5822 27.6564 8.26465L29.6662 7.61816C30.2327 7.43548 30.8635 7.5983 31.2433 8.06152C31.7647 8.70081 32.2413 9.37913 32.6662 10.0967L32.9689 10.626C33.3609 11.3423 33.7016 12.0846 33.9846 12.8594C33.9855 12.862 33.9846 12.8652 33.9826 12.8672C33.981 12.8691 33.9809 12.8716 33.9816 12.874C34.1852 13.4406 34.0107 14.0721 33.5676 14.4756L32.0021 15.9189C31.236 16.6255 30.8899 17.6609 30.8898 18.7031C30.8898 19.7454 31.2359 20.7807 32.0021 21.4873L33.5676 22.9316C34.0117 23.3361 34.1856 23.9686 33.9797 24.5361C33.6964 25.3126 33.3548 26.0567 32.9621 26.7744L32.6603 27.3027C32.2354 28.0205 31.759 28.6994 31.2375 29.3389C30.8576 29.8086 30.2259 29.9649 29.6594 29.7822L27.6496 29.1348C26.6636 28.8174 25.6004 29.0308 24.7062 29.5537C23.8217 30.071 23.112 30.8822 22.8957 31.8838L22.4357 34.0098C22.307 34.6035 21.8562 35.074 21.2639 35.1719C20.3755 35.3219 19.461 35.4004 18.5275 35.4004C17.5941 35.4004 16.6796 35.3219 15.7912 35.1719C15.199 35.0739 14.7481 34.6034 14.6193 34.0098L14.1603 31.8809C13.9442 30.8809 13.2349 30.0721 12.3517 29.5557C11.4564 29.0322 10.3909 28.8186 9.40448 29.1387L7.40252 29.7891C6.83595 29.9718 6.20524 29.808 5.82538 29.3447C5.30396 28.7054 4.8274 28.0272 4.40252 27.3096L4.09979 26.7812C3.70706 26.0635 3.36549 25.3194 3.08221 24.543C2.87619 23.9753 3.05008 23.342 3.49432 22.9375L5.05584 21.498C5.82504 20.7886 6.17303 19.7496 6.17303 18.7031C6.173 17.6609 5.82686 16.6255 5.06073 15.9189L3.49432 14.4756C3.05008 14.0711 2.87619 13.4378 3.08221 12.8701C3.3655 12.0937 3.70706 11.3495 4.09979 10.6318L4.40252 10.1035C4.8274 9.38593 5.30396 8.70768 5.82538 8.06836C6.20524 7.59858 6.83595 7.44133 7.40252 7.62402L9.41229 8.27148C10.3983 8.58898 11.4614 8.37547 12.3556 7.85254C13.2401 7.33525 13.9508 6.52493 14.1672 5.52344L14.6262 3.39648C14.7549 2.80274 15.2057 2.33323 15.798 2.23535C16.6865 2.07876 17.6008 2 18.5344 2ZM18.55 14.4961C15.8403 14.4963 13.6437 16.6935 13.6437 19.4033C13.6438 22.113 15.8403 24.3094 18.55 24.3096C21.2598 24.3096 23.4571 22.1131 23.4572 19.4033C23.4572 16.6934 21.2598 14.4961 18.55 14.4961Z" fill="#684FFF"/>
</g>
<defs>
<filter id="filter0_d_13666_28402" x="0.329427" y="0.933333" width="36.4036" height="38.7337" filterUnits="userSpaceOnUse" color-interpolation-filters="sRGB">
<feFlood flood-opacity="0" result="BackgroundImageFix"/>
<feColorMatrix in="SourceAlpha" type="matrix" values="0 0 0 0 0 0 0 0 0 0 0 0 0 0 0 0 0 0 127 0" result="hardAlpha"/>
<feOffset dy="1.6"/>
<feGaussianBlur stdDeviation="1.33333"/>
<feComposite in2="hardAlpha" operator="out"/>
<feColorMatrix type="matrix" values="0 0 0 0 0 0 0 0 0 0 0 0 0 0 0 0 0 0 0.15 0"/>
<feBlend mode="normal" in2="BackgroundImageFix" result="effect1_dropShadow_13666_28402"/>
<feBlend mode="normal" in="SourceGraphic" in2="effect1_dropShadow_13666_28402" result="shape"/>
</filter>
</defs>
</svg>
